<svg width="422" height="77" viewBox="0 0 422 77" fill="none" xmlns="http://www.w3.org/2000/svg">
<path d="M20.5455 62H4.04545V15.4545H20.6818C25.3636 15.4545 29.3939 16.3864 32.7727 18.25C36.1515 20.0985 38.75 22.7576 40.5682 26.2273C42.4015 29.697 43.3182 33.8485 43.3182 38.6818C43.3182 43.5303 42.4015 47.697 40.5682 51.1818C38.75 54.6667 36.1364 57.3409 32.7273 59.2045C29.3333 61.0682 25.2727 62 20.5455 62ZM13.8864 53.5682H20.1364C23.0455 53.5682 25.4924 53.053 27.4773 52.0227C29.4773 50.9773 30.9773 49.3636 31.9773 47.1818C32.9924 44.9848 33.5 42.1515 33.5 38.6818C33.5 35.2424 32.9924 32.4318 31.9773 30.25C30.9773 28.0682 29.4848 26.4621 27.5 25.4318C25.5152 24.4015 23.0682 23.8864 20.1591 23.8864H13.8864V53.5682ZM66.1989 62.6818C62.6686 62.6818 59.6155 61.9318 57.0398 60.4318C54.4792 58.9167 52.5019 56.8106 51.108 54.1136C49.714 51.4015 49.017 48.2576 49.017 44.6818C49.017 41.0758 49.714 37.9242 51.108 35.2273C52.5019 32.5152 54.4792 30.4091 57.0398 28.9091C59.6155 27.3939 62.6686 26.6364 66.1989 26.6364C69.7292 26.6364 72.7746 27.3939 75.3352 28.9091C77.911 30.4091 79.8958 32.5152 81.2898 35.2273C82.6837 37.9242 83.3807 41.0758 83.3807 44.6818C83.3807 48.2576 82.6837 51.4015 81.2898 54.1136C79.8958 56.8106 77.911 58.9167 75.3352 60.4318C72.7746 61.9318 69.7292 62.6818 66.1989 62.6818ZM66.2443 55.1818C67.8504 55.1818 69.1913 54.7273 70.267 53.8182C71.3428 52.8939 72.1534 51.6364 72.6989 50.0455C73.2595 48.4545 73.5398 46.6439 73.5398 44.6136C73.5398 42.5833 73.2595 40.7727 72.6989 39.1818C72.1534 37.5909 71.3428 36.3333 70.267 35.4091C69.1913 34.4848 67.8504 34.0227 66.2443 34.0227C64.6231 34.0227 63.2595 34.4848 62.1534 35.4091C61.0625 36.3333 60.2367 37.5909 59.6761 39.1818C59.1307 40.7727 58.858 42.5833 58.858 44.6136C58.858 46.6439 59.1307 48.4545 59.6761 50.0455C60.2367 51.6364 61.0625 52.8939 62.1534 53.8182C63.2595 54.7273 64.6231 55.1818 66.2443 55.1818ZM105.449 62.6818C101.873 62.6818 98.7973 61.9242 96.2216 60.4091C93.661 58.8788 91.6913 56.7576 90.3125 54.0455C88.9489 51.3333 88.267 48.2121 88.267 44.6818C88.267 41.1061 88.9564 37.9697 90.3352 35.2727C91.7292 32.5606 93.7064 30.447 96.267 28.9318C98.8277 27.4015 101.873 26.6364 105.403 26.6364C108.449 26.6364 111.116 27.1894 113.403 28.2955C115.691 29.4015 117.502 30.9545 118.835 32.9545C120.169 34.9545 120.903 37.303 121.04 40H111.903C111.646 38.2576 110.964 36.8561 109.858 35.7955C108.767 34.7197 107.335 34.1818 105.562 34.1818C104.062 34.1818 102.752 34.5909 101.631 35.4091C100.525 36.2121 99.661 37.3864 99.0398 38.9318C98.4186 40.4773 98.108 42.3485 98.108 44.5455C98.108 46.7727 98.411 48.6667 99.017 50.2273C99.6383 51.7879 100.509 52.9773 101.631 53.7955C102.752 54.6136 104.062 55.0227 105.562 55.0227C106.669 55.0227 107.661 54.7955 108.54 54.3409C109.434 53.8864 110.169 53.2273 110.744 52.3636C111.335 51.4848 111.722 50.4318 111.903 49.2045H121.04C120.888 51.8712 120.161 54.2197 118.858 56.25C117.57 58.2652 115.79 59.8409 113.517 60.9773C111.244 62.1136 108.555 62.6818 105.449 62.6818Z" fill="white"/>
<path d="M166.682 15.4545V62H160.227L136.568 27.8636H136.136V62H129.114V15.4545H135.614L159.295 49.6364H159.727V15.4545H166.682ZM186.54 62.7727C184.328 62.7727 182.328 62.3636 180.54 61.5455C178.752 60.7121 177.335 59.5076 176.29 57.9318C175.259 56.3561 174.744 54.4242 174.744 52.1364C174.744 50.1667 175.123 48.5455 175.881 47.2727C176.638 46 177.661 44.9924 178.949 44.25C180.237 43.5076 181.676 42.947 183.267 42.5682C184.858 42.1894 186.479 41.9015 188.131 41.7045C190.222 41.4621 191.919 41.2652 193.222 41.1136C194.525 40.947 195.472 40.6818 196.062 40.3182C196.653 39.9545 196.949 39.3636 196.949 38.5455V38.3864C196.949 36.4015 196.388 34.8636 195.267 33.7727C194.161 32.6818 192.509 32.1364 190.312 32.1364C188.025 32.1364 186.222 32.6439 184.903 33.6591C183.6 34.6591 182.699 35.7727 182.199 37L175.812 35.5455C176.57 33.4242 177.676 31.7121 179.131 30.4091C180.6 29.0909 182.29 28.1364 184.199 27.5455C186.108 26.9394 188.116 26.6364 190.222 26.6364C191.616 26.6364 193.093 26.803 194.653 27.1364C196.229 27.4545 197.699 28.0455 199.062 28.9091C200.441 29.7727 201.57 31.0076 202.449 32.6136C203.328 34.2045 203.767 36.2727 203.767 38.8182V62H197.131V57.2273H196.858C196.419 58.1061 195.759 58.9697 194.881 59.8182C194.002 60.6667 192.873 61.3712 191.494 61.9318C190.116 62.4924 188.464 62.7727 186.54 62.7727ZM188.017 57.3182C189.896 57.3182 191.502 56.947 192.835 56.2045C194.184 55.4621 195.206 54.4924 195.903 53.2955C196.616 52.0833 196.972 50.7879 196.972 49.4091V44.9091C196.729 45.1515 196.259 45.3788 195.562 45.5909C194.881 45.7879 194.1 45.9621 193.222 46.1136C192.343 46.25 191.487 46.3788 190.653 46.5C189.82 46.6061 189.123 46.697 188.562 46.7727C187.244 46.9394 186.04 47.2197 184.949 47.6136C183.873 48.0076 183.009 48.5758 182.358 49.3182C181.722 50.0455 181.403 51.0152 181.403 52.2273C181.403 53.9091 182.025 55.1818 183.267 56.0455C184.509 56.8939 186.093 57.3182 188.017 57.3182ZM241.432 27.0909L228.773 62H221.5L208.818 27.0909H216.114L224.955 53.9545H225.318L234.136 27.0909H241.432ZM247.818 62V27.0909H254.614V62H247.818ZM251.25 21.7045C250.068 21.7045 249.053 21.3106 248.205 20.5227C247.371 19.7197 246.955 18.7651 246.955 17.6591C246.955 16.5379 247.371 15.5833 248.205 14.7955C249.053 13.9924 250.068 13.5909 251.25 13.5909C252.432 13.5909 253.439 13.9924 254.273 14.7955C255.121 15.5833 255.545 16.5379 255.545 17.6591C255.545 18.7651 255.121 19.7197 254.273 20.5227C253.439 21.3106 252.432 21.7045 251.25 21.7045ZM278.392 75.8182C275.619 75.8182 273.233 75.4545 271.233 74.7273C269.248 74 267.627 73.0379 266.369 71.8409C265.112 70.6439 264.172 69.3333 263.551 67.9091L269.392 65.5C269.801 66.1667 270.347 66.8712 271.028 67.6136C271.725 68.3712 272.665 69.0152 273.847 69.5455C275.044 70.0758 276.581 70.3409 278.46 70.3409C281.036 70.3409 283.165 69.7121 284.847 68.4545C286.528 67.2121 287.369 65.2273 287.369 62.5V55.6364H286.938C286.528 56.3788 285.938 57.2045 285.165 58.1136C284.407 59.0227 283.362 59.8106 282.028 60.4773C280.695 61.1439 278.96 61.4773 276.824 61.4773C274.066 61.4773 271.581 60.8333 269.369 59.5455C267.172 58.2424 265.43 56.3258 264.142 53.7955C262.869 51.25 262.233 48.1212 262.233 44.4091C262.233 40.697 262.862 37.5152 264.119 34.8636C265.392 32.2121 267.134 30.1818 269.347 28.7727C271.559 27.3485 274.066 26.6364 276.869 26.6364C279.036 26.6364 280.786 27 282.119 27.7273C283.453 28.4394 284.491 29.2727 285.233 30.2273C285.991 31.1818 286.574 32.0227 286.983 32.75H287.483V27.0909H294.142V62.7727C294.142 65.7727 293.445 68.2348 292.051 70.1591C290.657 72.0833 288.771 73.5076 286.392 74.4318C284.028 75.3561 281.362 75.8182 278.392 75.8182ZM278.324 55.8409C280.278 55.8409 281.93 55.3864 283.278 54.4773C284.642 53.553 285.672 52.2348 286.369 50.5227C287.081 48.7955 287.438 46.7273 287.438 44.3182C287.438 41.9697 287.089 39.9015 286.392 38.1136C285.695 36.3258 284.672 34.9318 283.324 33.9318C281.975 32.9167 280.309 32.4091 278.324 32.4091C276.278 32.4091 274.574 32.9394 273.21 34C271.847 35.0455 270.816 36.4697 270.119 38.2727C269.438 40.0758 269.097 42.0909 269.097 44.3182C269.097 46.6061 269.445 48.6136 270.142 50.3409C270.839 52.0682 271.869 53.4167 273.233 54.3864C274.612 55.3561 276.309 55.8409 278.324 55.8409ZM313.415 62.7727C311.203 62.7727 309.203 62.3636 307.415 61.5455C305.627 60.7121 304.21 59.5076 303.165 57.9318C302.134 56.3561 301.619 54.4242 301.619 52.1364C301.619 50.1667 301.998 48.5455 302.756 47.2727C303.513 46 304.536 44.9924 305.824 44.25C307.112 43.5076 308.551 42.947 310.142 42.5682C311.733 42.1894 313.354 41.9015 315.006 41.7045C317.097 41.4621 318.794 41.2652 320.097 41.1136C321.4 40.947 322.347 40.6818 322.938 40.3182C323.528 39.9545 323.824 39.3636 323.824 38.5455V38.3864C323.824 36.4015 323.263 34.8636 322.142 33.7727C321.036 32.6818 319.384 32.1364 317.188 32.1364C314.9 32.1364 313.097 32.6439 311.778 33.6591C310.475 34.6591 309.574 35.7727 309.074 37L302.688 35.5455C303.445 33.4242 304.551 31.7121 306.006 30.4091C307.475 29.0909 309.165 28.1364 311.074 27.5455C312.983 26.9394 314.991 26.6364 317.097 26.6364C318.491 26.6364 319.968 26.803 321.528 27.1364C323.104 27.4545 324.574 28.0455 325.938 28.9091C327.316 29.7727 328.445 31.0076 329.324 32.6136C330.203 34.2045 330.642 36.2727 330.642 38.8182V62H324.006V57.2273H323.733C323.294 58.1061 322.634 58.9697 321.756 59.8182C320.877 60.6667 319.748 61.3712 318.369 61.9318C316.991 62.4924 315.339 62.7727 313.415 62.7727ZM314.892 57.3182C316.771 57.3182 318.377 56.947 319.71 56.2045C321.059 55.4621 322.081 54.4924 322.778 53.2955C323.491 52.0833 323.847 50.7879 323.847 49.4091V44.9091C323.604 45.1515 323.134 45.3788 322.438 45.5909C321.756 45.7879 320.975 45.9621 320.097 46.1136C319.218 46.25 318.362 46.3788 317.528 46.5C316.695 46.6061 315.998 46.697 315.438 46.7727C314.119 46.9394 312.915 47.2197 311.824 47.6136C310.748 48.0076 309.884 48.5758 309.233 49.3182C308.597 50.0455 308.278 51.0152 308.278 52.2273C308.278 53.9091 308.9 55.1818 310.142 56.0455C311.384 56.8939 312.968 57.3182 314.892 57.3182ZM355.989 27.0909V32.5455H336.92V27.0909H355.989ZM342.034 18.7273H348.83V51.75C348.83 53.0682 349.027 54.0606 349.42 54.7273C349.814 55.3788 350.322 55.8258 350.943 56.0682C351.58 56.2955 352.269 56.4091 353.011 56.4091C353.557 56.4091 354.034 56.3712 354.443 56.2955C354.852 56.2197 355.17 56.1591 355.398 56.1136L356.625 61.7273C356.231 61.8788 355.67 62.0303 354.943 62.1818C354.216 62.3485 353.307 62.4394 352.216 62.4545C350.428 62.4848 348.761 62.1667 347.216 61.5C345.67 60.8333 344.42 59.803 343.466 58.4091C342.511 57.0152 342.034 55.2652 342.034 53.1591V18.7273ZM377.835 62.7045C374.563 62.7045 371.706 61.9545 369.267 60.4545C366.828 58.9545 364.934 56.8561 363.585 54.1591C362.237 51.4621 361.562 48.3106 361.562 44.7045C361.562 41.0833 362.237 37.9167 363.585 35.2045C364.934 32.4924 366.828 30.3864 369.267 28.8864C371.706 27.3864 374.563 26.6364 377.835 26.6364C381.108 26.6364 383.964 27.3864 386.403 28.8864C388.843 30.3864 390.737 32.4924 392.085 35.2045C393.434 37.9167 394.108 41.0833 394.108 44.7045C394.108 48.3106 393.434 51.4621 392.085 54.1591C390.737 56.8561 388.843 58.9545 386.403 60.4545C383.964 61.9545 381.108 62.7045 377.835 62.7045ZM377.858 57C379.979 57 381.737 56.4394 383.131 55.3182C384.525 54.197 385.555 52.7045 386.222 50.8409C386.903 48.9773 387.244 46.9242 387.244 44.6818C387.244 42.4545 386.903 40.4091 386.222 38.5455C385.555 36.6667 384.525 35.1591 383.131 34.0227C381.737 32.8864 379.979 32.3182 377.858 32.3182C375.722 32.3182 373.949 32.8864 372.54 34.0227C371.146 35.1591 370.108 36.6667 369.426 38.5455C368.759 40.4091 368.426 42.4545 368.426 44.6818C368.426 46.9242 368.759 48.9773 369.426 50.8409C370.108 52.7045 371.146 54.197 372.54 55.3182C373.949 56.4394 375.722 57 377.858 57ZM401.693 62V27.0909H408.261V32.6364H408.625C409.261 30.7576 410.383 29.2803 411.989 28.2045C413.61 27.1136 415.443 26.5682 417.489 26.5682C417.913 26.5682 418.413 26.5833 418.989 26.6136C419.58 26.6439 420.042 26.6818 420.375 26.7273V33.2273C420.102 33.1515 419.617 33.0682 418.92 32.9773C418.223 32.8712 417.527 32.8182 416.83 32.8182C415.223 32.8182 413.792 33.1591 412.534 33.8409C411.292 34.5076 410.307 35.4394 409.58 36.6364C408.852 37.8182 408.489 39.1667 408.489 40.6818V62H401.693Z" fill="white"/>
</svg>
